# xmcd
#
# Track frame offsets:
#	150
#	35321
#	60712
#	99296
#	156704
#	186162
#	213134
#	249811
#	295740
#
# Disc length: 4236 seconds
#
# Revision: 0
# Processed by: cddbd v1.5.2PL0 Copyright (c) Steve Scherf et al.
# Submitted via: audiograbber 1.83.01
#
DISCID=75108a09
DTITLE=Grateful Dead - 92-06-23 Star Lake Amphitheatre, Burgettstown PA
DYEAR=1900
DGENRE=
TTITLE0=So Many Roads
TTITLE1=Long Way To Go Home
TTITLE2=Corrina
TTITLE3=Drums
TTITLE4=Space
TTITLE5=The Last Time
TTITLE6=Standing On The Moon
TTITLE7=Sugar Magnolia
TTITLE8=Brokedown Palace
EXTD=
EXTT0=
EXTT1=
EXTT2=
EXTT3=
EXTT4=
EXTT5=
EXTT6=
EXTT7=
EXTT8=
PLAYORDER=
